<?xml version="1.0" encoding="utf-8"?>
<!-- Generator: Adobe Illustrator 26.0.1, SVG Export Plug-In . SVG Version: 6.00 Build 0)  -->
<svg version="1.1" id="Lager_1" xmlns="http://www.w3.org/2000/svg" xmlns:xlink="http://www.w3.org/1999/xlink" x="0px" y="0px"
	 viewBox="0 0 1080 1080" style="enable-background:new 0 0 1080 1080;" xml:space="preserve">
<style type="text/css">
	.st0{fill:#F0FF05;}
	.st1{fill:#FFFFFF;}
</style>
<g>
	<path d="M841,319.2h-80.2V239c0-20-7.9-39.1-22.1-53.3L575.1,22.1C561,7.9,541.8,0,521.8,0H313.1c-20,0-39.1,7.9-53.3,22.1
		L18.4,263.5l159.8,159.8l191.4-191.4c3.8-3.8,8.9-5.9,14.2-5.9h67.3c5.3,0,10.4,2.1,14.2,5.9l63.7,63.7c3.8,3.8,5.9,8.9,5.9,14.2
		V377c0,5.3-2.1,10.4-5.9,14.2L337.6,582.7h0h0l159.8,159.8L688.8,551c3.8-3.8,8.9-5.9,14.2-5.9h67.3c5.3,0,10.4,2.1,14.2,5.9
		l63.7,63.7c3.8,3.8,5.9,8.9,5.9,14.2v67.3c0,5.3-2.1,10.4-5.9,14.2L656.7,901.8l159.8,159.8l241.4-241.4
		c14.1-14.1,22.1-33.3,22.1-53.3V558.2c0-20-7.9-39.1-22.1-53.3L894.3,341.2C880.1,327.1,861,319.2,841,319.2z"/>
	<g>
		<path d="M180.8,684.3V789c0,5.3,2.1,10.4,5.9,14.2l90.1,90.1c3.8,3.8,8.9,5.9,14.2,5.9h104.7c5.3,0,10.4-2.1,14.2-5.9l118.9-118.9
			l-32-32L391.2,848.1c-3.8,3.8-8.9,5.9-14.2,5.9h-67.3c-5.3,0-10.4-2.1-14.2-5.9l-63.6-63.6c-3.8-3.8-5.9-8.9-5.9-14.2V703
			c0-5.3,2.1-10.4,5.9-14.2l105.7-105.7l-32-32L186.7,670.1C182.9,673.9,180.8,679,180.8,684.3z"/>
		<path d="M624.9,870l-158.9,158.9c-3.8,3.8-8.9,5.9-14.2,5.9H234.8c-5.3,0-10.4-2.1-14.2-5.9L51.1,859.4c-3.8-3.8-5.9-8.9-5.9-14.2
			V628.1c0-5.3,2.1-10.4,5.9-14.2L210,455.1l-32-32L5.9,595.2C2.1,599,0,604.1,0,609.4v254.5c0,5.3,2.1,10.4,5.9,14.2l196,196
			c3.8,3.8,8.9,5.9,14.2,5.9h254.5c5.3,0,10.4-2.1,14.2-5.9L656.9,902L624.9,870z"/>
		<path d="M95.9,840.1l144,144c3.8,3.8,8.9,5.9,14.2,5.9h178.7c5.3,0,10.4-2.1,14.2-5.9l145.7-145.7l-32-32L428.3,938.9
			c-3.8,3.8-8.9,5.9-14.2,5.9H272.9c-5.3,0-10.4-2.1-14.2-5.9L141.1,821.3c-3.8-3.8-5.9-8.9-5.9-14.2V665.9c0-5.3,2.1-10.4,5.9-14.2
			l132.5-132.5l-32-32L95.9,633c-3.8,3.8-5.9,8.9-5.9,14.2v178.7C90.1,831.2,92.2,836.3,95.9,840.1z"/>
		<rect x="512.8" y="735.7" transform="matrix(0.7071 -0.7071 0.7071 0.7071 -385.9648 584.8245)" width="0.4" height="45.2"/>
		<rect x="321.5" y="544.4" transform="matrix(0.7071 -0.7071 0.7071 0.7071 -306.7356 393.5489)" width="0.4" height="45.2"/>
	</g>
</g>
</svg>
