<?xml version="1.0" encoding="utf-8"?>
<!-- Generator: Adobe Illustrator 26.0.1, SVG Export Plug-In . SVG Version: 6.00 Build 0)  -->
<svg version="1.1" id="Lager_1" xmlns="http://www.w3.org/2000/svg" xmlns:xlink="http://www.w3.org/1999/xlink" x="0px" y="0px"
	 viewBox="0 0 1730.9 579.4" style="enable-background:new 0 0 1730.9 579.4;" xml:space="preserve">
<style type="text/css">
	.st0{fill:#FFFFFF;}
	.st1{fill:#F0FF05;}
</style>
<g>
	<g>
		<path d="M82.4,117.9V72.7c0-11.5-9.3-20.8-20.8-20.8H0v383.7c0,43,34.9,77.9,77.9,77.9h234.7c45.9,0,83.1-37.2,83.1-83.1V138.6
			c0-11.5-9.3-20.8-20.8-20.8H165.6c-11,0-21.6,4.4-29.4,12.2L105,161.2c-3.9,3.9-9.2,6.1-14.7,6.1h-7.9V117.9z M313.2,431.1h-65.9
			H82.4V200.3h230.8V431.1z"/>
		<path d="M1417.7,464h7.9c5.5,0,10.8,2.2,14.7,6.1l31.2,31.2c7.8,7.8,18.4,12.2,29.4,12.2h147c45.9,0,83.1-37.2,83.1-83.1V200.9
			c0-45.9-37.2-83.1-83.1-83.1h-234.7c-43,0-77.9,34.9-77.9,77.9v383.7h61.7c11.5,0,20.8-9.3,20.8-20.8v-45.2V464z M1648.5,431.1
			h-230.8V200.3h164.8h65.9V431.1z"/>
		<path d="M465.9,117.9c-11.5,0-20.8,9.3-20.8,20.8v297c0,43,34.9,77.9,77.9,77.9h259.7c22.9,0,41.5-18.6,41.5-41.5v-40.9H560.5
			l225.7-95.3c32.7-12.1,54.5-43.3,54.4-78.2l-0.4-119c0-11.4-9.3-20.7-20.8-20.7H465.9z M527.5,365.1V200.3h231l0,65.9L527.5,365.1
			z"/>
		<path d="M910.9,117.9c-11.5,0-20.8,9.3-20.8,20.8v297c0,43,34.9,77.9,77.9,77.9h259.7c22.9,0,41.5-18.6,41.5-41.5v-40.9h-263.8
			l225.7-95.3c32.7-12.1,54.5-43.3,54.4-78.2l-0.4-119c0-11.4-9.3-20.7-20.8-20.7H910.9z M972.6,365.1V200.3h231l0,65.9L972.6,365.1
			z"/>
	</g>
	<path d="M193.8,0.1c11.1,0,16.6,13.3,8.9,21.2l-77.9,79.9c-2.3,2.3-5.5,3.7-8.8,3.6l-4.7,0l0.2-86.1c0-10.4,8.5-18.8,18.9-18.8
		L193.8,0.1z"/>
</g>
</svg>
