<?xml version="1.0" encoding="utf-8"?>
<!-- Generator: Adobe Illustrator 26.0.1, SVG Export Plug-In . SVG Version: 6.00 Build 0)  -->
<svg version="1.1" id="Lager_1" xmlns="http://www.w3.org/2000/svg" xmlns:xlink="http://www.w3.org/1999/xlink" x="0px" y="0px"
	 viewBox="0 0 2000 579.4" style="enable-background:new 0 0 2000 579.4;" xml:space="preserve">
<style type="text/css">
	.st0{fill:#FFFFFF;}
	.st1{fill:#F0FF05;}
</style>
<g>
	<g>
		<path d="M965.3,438.9l-44.4,44.4c-9.6,9.6-20.5,13.7-33.5,13.7H633V41h254.3c13,0,23.9,4.8,32.8,13.7l45.1,45.1
			c9.6,9.6,14.4,20.5,14.4,34.2v61.5c0,13-4.8,24.6-14.4,34.2l-39,39l39,39c9.6,9.6,14.4,20.5,14.4,34.2v62.9
			C979.6,417.7,974.8,429.3,965.3,438.9z M897.6,147.7c0-4.1-1.4-6.8-4.1-9.6l-15-15c-2.7-2.7-5.5-4.1-9.6-4.1H715.1v111.4h137.4
			c3.4,0,6.8-1.4,9.6-4.1l31.4-31.4c2.7-2.7,4.1-5.5,4.1-9.6V147.7z M897.6,353.4c0-4.1-1.4-6.8-4.1-9.6L860.7,311
			c-2.7-2.7-5.5-4.1-9.6-4.1h-136V419h153.8c3.4,0,6.8-1.4,9.6-4.1l15-15c2.7-2.7,4.1-5.5,4.1-9.6V353.4z"/>
		<path d="M1091.7,356.2v58.1c0,4.1,1.4,6.8,4.1,9.6l0.7,0.7c2.7,2.7,6.2,4.1,9.6,4.1H1223c3.4,0,6.8-1.4,9.6-4.1l34.2-34.2
			l48.5,48.5l-44.4,44.4c-9.6,9.6-20.5,13.7-33.5,13.7h-145.6c-13,0-23.9-4.1-33.5-13.7l-30.1-30.1c-9.6-9.6-14.4-21.2-14.4-34.9
			V235.8c0-13.7,4.8-25.3,14.4-34.9l30.1-30.1c9.6-9.6,20.5-13.7,33.5-13.7h145.6c13,0,23.9,4.1,33.5,13.7l30.1,30.1
			c9.6,9.6,14.4,21.2,14.4,34.9v120.3H1091.7z M1237.3,239.9c0-4.1-1.4-6.8-4.1-9.6l-0.7-0.7c-2.7-2.7-6.2-4.1-9.6-4.1h-116.9
			c-3.4,0-6.8,1.4-9.6,4.1l-0.7,0.7c-2.7,2.7-4.1,5.5-4.1,9.6v52.6h145.6V239.9z"/>
		<path d="M1427.4,356.2v58.1c0,4.1,1.4,6.8,4.1,9.6l0.7,0.7c2.7,2.7,6.2,4.1,9.6,4.1h116.9c3.4,0,6.8-1.4,9.6-4.1l34.2-34.2
			l48.5,48.5l-44.4,44.4c-9.6,9.6-20.5,13.7-33.5,13.7h-145.6c-13,0-23.9-4.1-33.5-13.7l-30.1-30.1c-9.6-9.6-14.4-21.2-14.4-34.9
			V235.8c0-13.7,4.8-25.3,14.4-34.9l30.1-30.1c9.6-9.6,20.5-13.7,33.5-13.7H1573c13,0,23.9,4.1,33.5,13.7l30.1,30.1
			c9.6,9.6,14.4,21.2,14.4,34.9v120.3H1427.4z M1573,239.9c0-4.1-1.4-6.8-4.1-9.6l-0.7-0.7c-2.7-2.7-6.2-4.1-9.6-4.1h-116.9
			c-3.4,0-6.8,1.4-9.6,4.1l-0.7,0.7c-2.7,2.7-4.1,5.5-4.1,9.6v52.6H1573V239.9z"/>
		<path d="M1985.6,453.2l-30.1,30.1c-9.6,9.6-20.5,13.7-33.5,13.7h-100.5c-13,0-23.9-4.1-33.5-13.7l-26-26v117.6h-77.9V211.2
			l-10.9-54h71.1l10.9,46.5l32.8-32.8c9.6-9.6,20.5-13.7,33.5-13.7h100.5c13,0,23.9,4.1,33.5,13.7l30.1,30.1
			c9.6,9.6,14.4,21.2,14.4,34.9v182.5C2000,432,1995.2,443.7,1985.6,453.2z M1922.1,239.9c0-4.1-1.4-6.8-4.1-9.6l-0.7-0.7
			c-2.7-2.7-6.2-4.1-9.6-4.1h-83.4c-3.4,0-6.8,1.4-9.6,4.1l-48.5,48.5c-2.7,2.7-4.1,5.5-4.1,9.6v78.6c0,4.1,1.4,6.8,4.1,9.6
			l48.5,48.5c2.7,2.7,6.2,4.1,9.6,4.1h83.4c3.4,0,6.8-1.4,9.6-4.1l0.7-0.7c2.7-2.7,4.1-5.5,4.1-9.6V239.9z"/>
	</g>
	<g>
		<path d="M429.1,162.8h-40.9v-40.9c0-10.2-4-20-11.3-27.2l-83.5-83.5C286.2,4,276.4,0,266.2,0H159.7c-10.2,0-20,4-27.2,11.3
			L9.4,134.4L90.9,216l97.7-97.7c1.9-1.9,4.5-3,7.2-3h34.3c2.7,0,5.3,1.1,7.2,3l32.5,32.5c1.9,1.9,3,4.5,3,7.2v34.3
			c0,2.7-1.1,5.3-3,7.2l-97.7,97.7h0h0l81.5,81.5l97.7-97.7c1.9-1.9,4.5-3,7.2-3H393c2.7,0,5.3,1.1,7.2,3l32.5,32.5
			c1.9,1.9,3,4.5,3,7.2v34.3c0,2.7-1.1,5.3-3,7.2l-97.7,97.7l81.5,81.5l123.2-123.2c7.2-7.2,11.3-17,11.3-27.2V284.8
			c0-10.2-4-20-11.3-27.2l-83.5-83.5C449,166.9,439.3,162.8,429.1,162.8z"/>
		<g>
			<path d="M92.2,349.1v53.4c0,2.7,1.1,5.3,3,7.2l46,46c1.9,1.9,4.5,3,7.2,3h53.4c2.7,0,5.3-1.1,7.2-3l60.7-60.7l-16.3-16.3
				l-53.9,53.9c-1.9,1.9-4.5,3-7.2,3H158c-2.7,0-5.3-1.1-7.2-3l-32.5-32.5c-1.9-1.9-3-4.5-3-7.2v-34.3c0-2.7,1.1-5.3,3-7.2
				l53.9-53.9l-16.3-16.3l-60.7,60.7C93.3,343.8,92.2,346.4,92.2,349.1z"/>
			<path d="M318.8,443.9L237.8,525c-1.9,1.9-4.5,3-7.2,3H119.8c-2.7,0-5.3-1.1-7.2-3l-86.5-86.5c-1.9-1.9-3-4.5-3-7.2V320.5
				c0-2.7,1.1-5.3,3-7.2l81.1-81.1l-16.3-16.3L3,303.7c-1.9,1.9-3,4.5-3,7.2v129.8c0,2.7,1.1,5.3,3,7.2l100,100c1.9,1.9,4.5,3,7.2,3
				h129.8c2.7,0,5.3-1.1,7.2-3l87.8-87.8L318.8,443.9z"/>
			<path d="M49,428.6l73.5,73.5c1.9,1.9,4.5,3,7.2,3h91.2c2.7,0,5.3-1.1,7.2-3l74.3-74.3l-16.3-16.3L218.5,479c-1.9,1.9-4.5,3-7.2,3
				h-72c-2.7,0-5.3-1.1-7.2-3l-60-60c-1.9-1.9-3-4.5-3-7.2v-72c0-2.7,1.1-5.3,3-7.2l67.6-67.6l-16.3-16.3L49,323
				c-1.9,1.9-3,4.5-3,7.2v91.2C46,424.1,47,426.7,49,428.6z"/>
			<rect x="261.6" y="375.4" transform="matrix(0.7071 -0.7071 0.7071 0.7071 -196.9189 298.3766)" width="0.2" height="23.1"/>
			<rect x="164" y="277.8" transform="matrix(0.7071 -0.7071 0.7071 0.7071 -156.4963 200.788)" width="0.2" height="23.1"/>
		</g>
	</g>
</g>
</svg>
